	<svg xmlns="http://www.w3.org/2000/svg" width="64.416" height="8.891" viewBox="0 0 64.416 8.891" preserveAspectRatio="none" className="edifice"><g data-name="グループ 3933"><path data-name="パス 480" d="M30.151 8.892h-1.457c-1.057 0-.657-1.2-.657-1.2l.709-2.871.052-.191A5.558 5.558 0 0131.869.668a5.267 5.267 0 012.3-.6h5.186l-.368 1.56h-5a2.187 2.187 0 00-1.453.59 3.794 3.794 0 00-1.032 1.534h6.973l-.368 1.541h-6.955l-.126.02z" fill="#1a1311"></path><g data-name="グループ 3931"><path data-name="パス 481" d="M21.916.715a3.537 3.537 0 00-2.24-.714h-5.4l-1.825 7.688s-.4 1.2.656 1.2h4.371a5.332 5.332 0 002.3-.589 5.585 5.585 0 003.081-3.976 5.157 5.157 0 00.162-1.232A2.8 2.8 0 0021.916.715zm-1.56 3.79a3.742 3.742 0 01-1.6 2.462 2.086 2.086 0 01-1.105.378h-2.767l1.389-5.793h2.71a1.306 1.306 0 011.1.526 2.244 2.244 0 01.4 1.391 4.364 4.364 0 01-.127 1.036z" fill="#1a1311"></path></g><path data-name="パス 482" d="M25.78 8.892h-1.457c-1.056 0-.656-1.2-.656-1.2L25.544.025l2.372-.021z" fill="#1a1311"></path><path data-name="パス 483" d="M41.267 8.892H39.81c-1.055 0-.657-1.2-.657-1.2L41.031.025l2.371-.021z" fill="#1a1311"></path><path data-name="パス 484" d="M54.107.001l-.368 1.551h-4.592a2.182 2.182 0 00-1.105.365 3.723 3.723 0 00-1.586 2.475 4.353 4.353 0 00-.134 1.035 2.227 2.227 0 00.393 1.384 1.345 1.345 0 001.11.533h4.516l-.368 1.547h-4.839a3.605 3.605 0 01-2.25-.7 2.85 2.85 0 01-1.086-2.395 5.151 5.151 0 01.161-1.232A5.562 5.562 0 0147.03.601a5.286 5.286 0 012.3-.6z" fill="#1a1311"></path><path data-name="パス 485" d="M64.417.001l-.368 1.561h-4.591a2.169 2.169 0 00-1.451.592 3.76 3.76 0 00-1.035 1.533h6.566l-.369 1.541h-6.548a2.441 2.441 0 00.416 1.582 1.347 1.347 0 001.1.542h4.516l-.37 1.541h-4.836a3.606 3.606 0 01-2.25-.7 2.849 2.849 0 01-1.086-2.395 5.227 5.227 0 01.161-1.232A5.562 5.562 0 0157.343.603a5.288 5.288 0 012.3-.6z" fill="#1a1311"></path><g data-name="グループ 3932"><path data-name="パス 486" d="M4.807 2.154a2.165 2.165 0 011.451-.592h5.493L12.12.001H6.203a5.291 5.291 0 00-2.3.6A5.562 5.562 0 00.832 4.564L.071 7.688s-.4 1.2.655 1.2h9.255l.368-1.541H3.314c-.465 0-.266-.619-.266-.619l.353-1.49.02-.016h7.45l.368-1.541H3.771a3.76 3.76 0 011.036-1.527z" fill="#1a1311"></path></g></g></svg>


